<?xml version="1.0" standalone="no"?>
<!DOCTYPE svg PUBLIC "-//W3C//DTD SVG 20010904//EN"
 "http://www.w3.org/TR/2001/REC-SVG-20010904/DTD/svg10.dtd">
<svg version="1.0" xmlns="http://www.w3.org/2000/svg"
 width="323.000000pt" height="501.000000pt" viewBox="0 0 323.000000 501.000000"
 preserveAspectRatio="xMidYMid meet">

<g transform="translate(0.000000,501.000000) scale(0.100000,-0.100000)"
fill="#000000" stroke="none">
<path d="M1570 4168 c-10 -24 -151 -341 -313 -706 l-293 -662 -89 192 c-49
106 -108 234 -131 285 l-43 92 126 53 c123 51 147 68 125 90 -8 8 -86 -20
-283 -103 -149 -63 -274 -120 -277 -127 -2 -7 0 -18 7 -25 8 -8 31 -2 88 22
43 18 99 41 124 51 l46 18 136 -297 c76 -164 137 -304 137 -312 0 -8 -95 -227
-211 -488 -115 -260 -208 -480 -205 -487 4 -11 85 -14 443 -16 l437 -3 93
-200 c51 -110 93 -203 93 -207 0 -4 -44 -9 -97 -10 -90 -3 -98 -5 -98 -23 0
-19 7 -20 265 -20 258 0 265 1 265 20 0 19 -8 20 -133 23 -74 1 -132 6 -130
11 2 5 39 99 83 210 l80 201 438 0 c359 0 439 2 443 14 3 7 -98 247 -225 533
l-230 519 110 280 c61 153 112 280 113 281 1 2 63 -49 137 -112 128 -110 160
-128 167 -94 3 18 -411 374 -436 374 -37 0 -21 -34 42 -88 40 -33 60 -57 53
-60 -7 -3 -58 -118 -112 -256 -54 -138 -102 -248 -106 -244 -5 5 -138 301
-297 658 -201 453 -294 651 -306 653 -11 3 -22 -10 -36 -40z m339 -728 l277
-624 -201 -506 -202 -505 -179 -3 -180 -2 -216 470 -217 471 307 690 c296 665
307 689 320 662 7 -15 138 -309 291 -653z m525 -1185 c108 -242 196 -443 196
-447 0 -5 -178 -8 -396 -8 -373 0 -396 1 -390 18 4 9 88 224 188 476 173 435
183 457 194 430 7 -16 101 -227 208 -469z m-1258 -35 l191 -415 -390 -3 c-215
-1 -392 0 -395 2 -2 3 83 201 189 441 169 380 195 433 204 413 5 -13 96 -210
201 -438z m581 -482 c-72 -183 -140 -348 -142 -346 -4 4 -165 351 -165 355 0
2 70 3 156 3 121 0 155 -3 151 -12z"/>
</g>
</svg>
